<svg width="12" height="12" viewBox="0 0 12 12" fill="none" xmlns="http://www.w3.org/2000/svg">
<path d="M6.90818 1.48026H6.53921C6.51599 1.48401 6.49232 1.48401 6.4691 1.48026C5.83409 1.29348 5.17171 1.2184 4.51123 1.25835H4.88343C5.54391 1.2184 6.2063 1.29348 6.84131 1.48026C6.86452 1.48401 6.88819 1.48401 6.91141 1.48026" fill="#00405D"/>
<path d="M1.77278 4.71999H1.40381L9.34691 0.896545H9.71911L1.77278 4.71999Z" fill="#004463"/>
<path d="M1.69441 4.73942H1.32544C1.35114 4.73834 1.37631 4.73171 1.39923 4.71997H1.77697C1.75265 4.73237 1.72584 4.73902 1.69857 4.73942" fill="#004462"/>
<path d="M0.606963 7.27631H0.23476C0.172728 7.27408 0.113884 7.24815 0.0702503 7.2038C0.026617 7.15946 0.00148872 7.10005 0 7.03772H0.377738C0.379846 7.09888 0.404698 7.15702 0.447389 7.20067C0.49008 7.24432 0.54751 7.27032 0.608347 7.27353" fill="#00405D"/>
<path d="M0.377738 7.0373H0V6.8858H0.372203V7.0373" fill="#00405D"/>
<path d="M0.372203 1.42188H0V6.88903H0.372203V1.42188Z" fill="#003F5D"/>
<path d="M0.372204 1.42142H9.80602e-07C-0.000137548 1.36888 0.0144039 1.31735 0.0419718 1.27271H0.415097C0.38753 1.31735 0.372988 1.36888 0.373127 1.42142" fill="#00405D"/>
<path d="M0.414439 1.27263H0.0422363C0.0584226 1.24745 0.0792418 1.2256 0.103578 1.20825H0.475782C0.451445 1.2256 0.430626 1.24745 0.414439 1.27263Z" fill="#004260"/>
<path d="M0.475963 1.20829H0.10376L0.129127 1.19161C1.44468 0.490317 2.89594 0.0837982 4.38294 6.10352e-05L4.75515 6.10352e-05C3.26754 0.0828073 1.81576 0.490218 0.500869 1.19393L0.475502 1.20783" fill="#004462"/>
<path d="M4.75475 8.05303e-05C5.97903 -0.00514068 7.1912 0.243581 8.31536 0.730672C8.32203 0.734827 8.32754 0.740624 8.33136 0.747515C8.33518 0.754407 8.33719 0.762163 8.33719 0.77005C8.33719 0.777938 8.33518 0.785694 8.33136 0.792585C8.32754 0.799477 8.32203 0.805274 8.31536 0.809429L6.99259 1.4608C6.96458 1.47391 6.93401 1.48056 6.90311 1.48026C6.87989 1.48401 6.85622 1.48401 6.833 1.48026C6.19841 1.29379 5.53651 1.21888 4.87652 1.25881H4.75614C3.67772 1.30585 2.61846 1.56146 1.63646 2.01164C1.59418 2.03158 1.55859 2.06343 1.53403 2.10333C1.50946 2.14322 1.49697 2.18943 1.49809 2.23633V4.52029C1.4966 4.54758 1.50047 4.5749 1.50949 4.60068C1.51851 4.62647 1.5325 4.65021 1.55066 4.67056C1.56883 4.69091 1.5908 4.70747 1.61533 4.71929C1.63987 4.7311 1.66648 4.73795 1.69365 4.73943C1.72092 4.73903 1.74774 4.73237 1.77206 4.71997L9.71931 0.896062C9.72649 0.893837 9.73423 0.894317 9.74109 0.897413C9.74794 0.900508 9.75344 0.906006 9.75655 0.912879C9.75966 0.919751 9.76017 0.927526 9.75798 0.934749C9.7558 0.941972 9.75107 0.948147 9.74468 0.952119L0.725551 7.23696C0.690501 7.26239 0.648408 7.27616 0.605173 7.27634C0.544336 7.27313 0.486907 7.24714 0.444215 7.20348C0.401524 7.15983 0.376672 7.10169 0.374564 7.04053V1.42142C0.373636 1.37538 0.385102 1.32994 0.407752 1.28991C0.430401 1.24987 0.463393 1.21672 0.503244 1.19395C1.81693 0.489708 3.26793 0.0822518 4.75475 8.05303e-05Z" fill="#0C648C"/>
<path d="M1.6082 9.27122H1.23646C1.20235 9.2709 1.16871 9.2632 1.13783 9.24865C1.10696 9.2341 1.07956 9.21304 1.05751 9.1869C0.832054 8.93424 0.631271 8.66042 0.457921 8.36922C0.430031 8.32306 0.415283 8.2701 0.415283 8.2161C0.415283 8.16211 0.430031 8.10915 0.457921 8.06299H0.838888C0.810998 8.10915 0.79625 8.16211 0.79625 8.2161C0.79625 8.2701 0.810998 8.32306 0.838888 8.36922C1.00932 8.66003 1.207 8.93384 1.42925 9.1869C1.4513 9.21304 1.4787 9.2341 1.50958 9.24865C1.54046 9.2632 1.57409 9.2709 1.6082 9.27122Z" fill="#90330C"/>
<path d="M0.839652 8.06156H0.461914C0.478868 8.03517 0.500616 8.01223 0.526023 7.99392L10.4076 0.927063H10.7798L0.900071 7.99531C0.876651 8.01413 0.856808 8.03705 0.841497 8.06295" fill="#94340E"/>
<path d="M10.7792 0.927063C10.8434 0.927063 10.8715 0.97756 10.8351 1.01138L1.77349 9.20632C1.72831 9.24761 1.66946 9.27057 1.60838 9.27072C1.57427 9.2704 1.54063 9.2627 1.50975 9.24815C1.47887 9.2336 1.45148 9.21254 1.42942 9.1864C1.20718 8.93334 1.00949 8.65953 0.839065 8.36872C0.801897 8.30894 0.788474 8.2373 0.801461 8.16804C0.814449 8.09877 0.852898 8.03695 0.90917 7.99485L10.7792 0.927063Z" fill="#E25526"/>
<path d="M8.41371 6.36646H8.0415L9.00361 5.28192H9.37581L8.41371 6.36646Z" fill="#004362"/>
<path d="M8.3011 6.56707H7.93213C7.9356 6.52927 7.94915 6.49314 7.97133 6.46252H8.34354C8.32039 6.49472 8.30679 6.53293 8.30433 6.57267" fill="#00405D"/>
<path d="M8.3409 6.46249H7.97192C7.99298 6.43055 8.01642 6.40028 8.04203 6.37195H8.41423C8.38862 6.40028 8.36519 6.43055 8.34413 6.46249" fill="#004260"/>
<path d="M7.85389 8.32427H7.48169C7.55736 8.24742 7.62577 8.16366 7.68601 8.0741H8.05821C7.99797 8.16366 7.92957 8.24742 7.85389 8.32427Z" fill="#004260"/>
<path d="M8.05867 8.07408H7.6897C7.88848 7.77063 7.91339 7.42781 7.93322 6.56287H8.30542C8.28605 7.42549 8.2593 7.76739 8.0619 8.07408" fill="#00405D"/>
<path d="M4.98589 10.6248H4.6123C4.64721 10.6243 4.6812 10.6135 4.71008 10.5938C4.8752 10.4845 5.06799 10.3552 5.26954 10.2088H5.64174C5.43742 10.3547 5.24464 10.4895 5.08229 10.5938C5.05341 10.6135 5.01942 10.6243 4.98451 10.6248" fill="#004462"/>
<path d="M5.64466 10.2093H5.27246C5.55196 10.0096 5.85682 9.77937 6.15892 9.52642C6.63557 9.17342 7.07674 8.7745 7.47616 8.33533H7.84836C7.44468 8.77016 7.00392 9.1687 6.53113 9.52642C6.22903 9.77937 5.92416 10.0096 5.64466 10.2093Z" fill="#004260"/>
<path d="M2.31654 9.68587H1.94434L11.5713 0.994751H11.9403L2.31654 9.68587Z" fill="#004462"/>
<path d="M11.9426 0.994751C11.9929 0.994751 12.0155 1.02579 11.9887 1.05081L4.4755 10.0041C4.45494 10.0292 4.43975 10.0583 4.4309 10.0895C4.42204 10.1207 4.41971 10.1535 4.42404 10.1857C4.42837 10.2179 4.43927 10.2488 4.45606 10.2766C4.47286 10.3043 4.49517 10.3283 4.52162 10.347L4.90213 10.5971C4.9296 10.6151 4.96158 10.6249 4.99437 10.6254C5.02928 10.6249 5.06327 10.6141 5.09215 10.5944C5.59489 10.2672 6.07858 9.91148 6.54084 9.52882C7.81057 8.46698 7.86084 8.33495 7.86361 8.32429C8.25242 7.91707 8.28885 7.66134 8.31099 6.56383C8.31099 6.51055 8.33359 6.46283 8.41984 6.36416L9.38194 5.2824C9.42391 5.2824 9.44328 5.2824 9.44328 5.31344C9.44328 6.21822 9.38748 6.54391 9.38748 7.28006C9.38748 9.24668 6.23551 11.3254 5.27894 11.9184C5.19515 11.9712 5.09835 11.9994 4.99944 11.9999C4.90102 12.0015 4.80414 11.9752 4.71995 11.924C3.86835 11.4175 3.06423 10.8344 2.31746 10.182C2.28354 10.1502 2.25649 10.1117 2.238 10.069C2.2195 10.0262 2.20996 9.98011 2.20996 9.93349C2.20996 9.88687 2.2195 9.84075 2.238 9.79799C2.25649 9.75524 2.28354 9.71675 2.31746 9.68494L11.9426 0.994751Z" fill="#0C648C"/>
<path d="M4.99006 11.9985H4.62108C4.52265 12.0001 4.42578 11.9738 4.34158 11.9226C3.49669 11.4151 2.69909 10.8321 1.95847 10.1806C1.89921 10.1259 1.86112 10.0519 1.8509 9.97174C1.84069 9.89154 1.85902 9.8103 1.90266 9.74237H2.2661C2.22246 9.8103 2.20413 9.89154 2.21434 9.97174C2.22456 10.0519 2.26265 10.1259 2.32191 10.1806C3.06868 10.833 3.8728 11.416 4.7244 11.9226C4.80859 11.9738 4.90547 12.0001 5.00389 11.9985" fill="#00405D"/>
<path d="M2.26673 9.74422H1.89453C1.9128 9.72065 1.93439 9.6999 1.95864 9.68262H2.31655C2.29737 9.70001 2.28048 9.71977 2.26627 9.74144" fill="#004260"/>
</svg>
