<svg width="65" height="37" fill="none" xmlns="http://www.w3.org/2000/svg"><path d="M63.12 33.095c-2.579 0-3.942.558-5.145 1.05-1.132.466-2.202.902-4.387.902-2.186 0-3.255-.436-4.387-.902-1.203-.492-2.566-1.05-5.147-1.05-2.579 0-3.941.558-5.142 1.05-1.132.466-2.2.902-4.385.902-2.185 0-3.253-.436-4.385-.902-1.203-.492-2.565-1.05-5.145-1.05-2.579 0-3.942.558-5.144 1.05-1.13.466-2.199.902-4.383.902s-3.252-.436-4.383-.902c-1.2-.492-2.563-1.05-5.142-1.05a.983.983 0 0 0-.99.976c0 .54.444.977.99.977 2.184 0 3.251.438 4.382.901 1.2.493 2.563 1.051 5.142 1.051 2.58 0 3.94-.558 5.143-1.05 1.13-.464 2.2-.903 4.383-.903 2.185 0 3.254.439 4.386.903 1.202.492 2.565 1.05 5.144 1.05 2.58 0 3.941-.558 5.144-1.05 1.13-.464 2.2-.903 4.383-.903 2.186 0 3.254.439 4.387.903 1.203.492 2.566 1.05 5.147 1.05 2.58 0 3.943-.558 5.146-1.05 1.132-.464 2.201-.903 4.387-.903.547 0 .99-.436.99-.976a.98.98 0 0 0-.988-.976z" fill="#fff"/><mask id="a" fill="#fff"><rect x="43.392" y="15.571" width="17.823" height="8.786" rx="1"/></mask><rect x="43.392" y="15.571" width="17.823" height="8.786" rx="1" stroke="#fff" stroke-width="4" mask="url(#a)"/><path fill-rule="evenodd" clip-rule="evenodd" d="M64.01 22.722c.341 0 .658.174.84.46.181.284.2.642.05.944l-3.509 7.106c-.963.099-1.76.27-2.435.473l3.47-7.03H37.073a.994.994 0 0 1-.724-.31l-4.788-5.074H2.389c.99 2.599 3.589 8.602 7.71 12.413-.857-.258-1.898-.468-3.245-.534C2.416 25.95.19 19.068.044 18.604a.968.968 0 0 1 .149-.868.99.99 0 0 1 .797-.398h10.699V8.492c0-.54.444-.976.99-.976h3.838V.976c0-.539.444-.976.99-.976h14.485c.546 0 .99.437.99.976v16.955l4.522 4.791H64.01zM31 7.516H18.498V1.953h12.505v5.563zM13.67 17.338h7.676v-7.87H13.67v7.87zm9.657 0H31v-7.87h-7.675v7.87z" fill="#fff"/></svg>