<svg width="12" height="12" fill="none" xmlns="http://www.w3.org/2000/svg"><path d="M6.908 1.48H6.54a.22.22 0 0 1-.07 0 5.715 5.715 0 0 0-1.958-.222h.372c.66-.04 1.323.035 1.958.222a.22.22 0 0 0 .07 0" fill="#00405D"/><path d="M1.773 4.72h-.37L9.348.897h.372L1.773 4.72z" fill="#004463"/><path d="M1.694 4.74h-.369a.178.178 0 0 0 .074-.02h.378a.178.178 0 0 1-.078.02" fill="#004462"/><path d="M.607 7.276H.235A.243.243 0 0 1 0 7.038h.378a.245.245 0 0 0 .23.236M.378 7.037H0v-.151h.372v.151" fill="#00405D"/><path d="M.372 1.422H0v5.467h.372V1.422z" fill="#003F5D"/><path d="M.372 1.421H0c0-.052.014-.104.042-.148h.373a.282.282 0 0 0-.042.148" fill="#00405D"/><path d="M.414 1.273H.042a.235.235 0 0 1 .062-.065h.372a.235.235 0 0 0-.062.065z" fill="#004260"/><path d="M.476 1.208H.104l.025-.016A10.27 10.27 0 0 1 4.383 0h.372C3.268.083 1.815.49.501 1.194l-.025.014" fill="#004462"/><path d="M4.755 0a8.86 8.86 0 0 1 3.56.73.046.046 0 0 1 0 .08l-1.322.65a.206.206 0 0 1-.09.02.22.22 0 0 1-.07 0 5.715 5.715 0 0 0-1.956-.221h-.12a8.36 8.36 0 0 0-3.12.753.241.241 0 0 0-.139.224V4.52a.209.209 0 0 0 .196.22.178.178 0 0 0 .078-.02L9.72.896a.03.03 0 0 1 .038.017.031.031 0 0 1-.012.04L.725 7.236a.206.206 0 0 1-.12.04.243.243 0 0 1-.23-.236V1.42a.257.257 0 0 1 .128-.227A10.188 10.188 0 0 1 4.755 0z" fill="#0C648C"/><path d="M1.608 9.271h-.372a.237.237 0 0 1-.178-.084 5.3 5.3 0 0 1-.6-.818.296.296 0 0 1 0-.306h.38a.296.296 0 0 0 0 .306c.171.291.369.565.591.818a.238.238 0 0 0 .18.084z" fill="#90330C"/><path d="M.84 8.062H.462a.25.25 0 0 1 .064-.068L10.408.927h.372L.9 7.995a.25.25 0 0 0-.059.068" fill="#94340E"/><path d="M10.78.927c.063 0 .091.05.055.084L1.773 9.206a.237.237 0 0 1-.344-.02 5.3 5.3 0 0 1-.59-.817.282.282 0 0 1 .07-.374L10.78.927z" fill="#E25526"/><path d="M8.414 6.366H8.04l.963-1.084h.372l-.962 1.084z" fill="#004362"/><path d="M8.301 6.567h-.369a.211.211 0 0 1 .04-.104h.372a.211.211 0 0 0-.04.11" fill="#00405D"/><path d="M8.34 6.462h-.368a.754.754 0 0 1 .07-.09h.372a.754.754 0 0 0-.07.09M7.854 8.324h-.372c.075-.077.144-.16.204-.25h.372c-.06.09-.128.173-.204.25z" fill="#004260"/><path d="M8.059 8.074h-.37c.2-.303.224-.646.244-1.511h.372c-.019.862-.046 1.204-.243 1.511" fill="#00405D"/><path d="M4.986 10.625h-.374a.178.178 0 0 0 .098-.031c.165-.11.358-.239.56-.385h.372c-.205.146-.397.28-.56.385a.178.178 0 0 1-.097.03" fill="#004462"/><path d="M5.645 10.21h-.373c.28-.2.585-.43.887-.684a9.107 9.107 0 0 0 1.317-1.19h.372c-.403.434-.844.833-1.317 1.19-.302.253-.607.484-.886.683z" fill="#004260"/><path d="M2.317 9.686h-.373L11.571.995h.37l-9.624 8.69z" fill="#004462"/><path d="M11.943.995c.05 0 .072.03.046.056l-7.514 8.953a.237.237 0 0 0 .047.343l.38.25c.028.018.06.028.092.028a.178.178 0 0 0 .098-.03c.503-.328.987-.684 1.449-1.066 1.27-1.062 1.32-1.194 1.323-1.205.388-.407.425-.663.447-1.76 0-.053.023-.101.109-.2l.962-1.082c.042 0 .061 0 .061.031 0 .905-.056 1.23-.056 1.967 0 1.967-3.151 4.045-4.108 4.638a.53.53 0 0 1-.559.006 16.373 16.373 0 0 1-2.403-1.742.34.34 0 0 1 0-.497l9.626-8.69z" fill="#0C648C"/><path d="M4.99 11.998h-.369a.522.522 0 0 1-.28-.075 16.371 16.371 0 0 1-2.383-1.742.343.343 0 0 1-.055-.439h.363a.344.344 0 0 0 .056.439 16.38 16.38 0 0 0 2.402 1.742.522.522 0 0 0 .28.075" fill="#00405D"/><path d="M2.267 9.744h-.372a.305.305 0 0 1 .064-.061h.358a.306.306 0 0 0-.05.058" fill="#004260"/></svg>