<svg width="88" height="22" fill="none" xmlns="http://www.w3.org/2000/svg"><path d="M30.811 16.238a.508.508 0 0 1-.245.093l-.414.072c-.154.027-.34.052-.562.072-.222.02-.494.04-.818.057h-1.186a7.61 7.61 0 0 1-1.433-.13c-.408-.06-.799-.209-1.144-.437a2.408 2.408 0 0 1-.777-1.03 4.039 4.039 0 0 1-.287-1.643V7.803a4.039 4.039 0 0 1 .287-1.622c.16-.408.43-.765.777-1.03.343-.245.735-.41 1.15-.485a7.613 7.613 0 0 1 1.44-.107h1.187c.273-.004.547.015.817.056.225.02.412.045.562.073l.414.072c.089.009.173.04.246.092a.31.31 0 0 1 .071.237v1.03a.326.326 0 0 1-.312.315h-3.213a1.312 1.312 0 0 0-.966.284c-.22.311-.32.695-.275 1.076v1.704h4.252a.32.32 0 0 1 .312.315v1.138a.326.326 0 0 1-.312.314H26.13v2.06c-.044.38.054.764.275 1.076.273.22.62.321.966.284h3.203a.32.32 0 0 1 .312.314v1.03a.31.31 0 0 1-.074.209zM39.23 16.116a.326.326 0 0 1-.312.315H37.58a.321.321 0 0 1-.312-.315v-.254a5.42 5.42 0 0 1-1.096.514c-.36.12-.736.18-1.114.18-.327 0-.653-.035-.971-.108a2.129 2.129 0 0 1-1.498-1.215 3.039 3.039 0 0 1-.245-1.33v-.05c-.01-.406.062-.809.21-1.186.144-.34.377-.636.674-.855a3.202 3.202 0 0 1 1.19-.515 7.644 7.644 0 0 1 1.749-.175h.996v-.706a1.255 1.255 0 0 0-.337-1.03 1.733 1.733 0 0 0-1.022-.255 24.753 24.753 0 0 0-2.576.135h-.077a.391.391 0 0 1-.205-.047c-.051-.03-.077-.103-.077-.222V7.978a.32.32 0 0 1 .297-.33c.314-.061.692-.118 1.135-.17.492-.054.987-.08 1.482-.077a3.894 3.894 0 0 1 2.556.742 2.792 2.792 0 0 1 .884 2.276l.007 5.697zm-2.07-3.605h-1a3.633 3.633 0 0 0-.874.085 1.345 1.345 0 0 0-.532.278.826.826 0 0 0-.265.417c-.05.191-.075.389-.072.586v.026a.93.93 0 0 0 .265.783c.264.153.567.22.87.196.285-.002.57-.045.842-.13.266-.078.523-.183.767-.314l-.001-1.927zM47.056 14.098a2.48 2.48 0 0 1-.19.968 2.06 2.06 0 0 1-.572.783 2.782 2.782 0 0 1-.966.515 4.364 4.364 0 0 1-1.348.19h-.572a5.151 5.151 0 0 1-.731-.057l-.759-.108a5.177 5.177 0 0 1-.72-.15.352.352 0 0 1-.297-.365v-.935a.256.256 0 0 1 .265-.252h.062l.664.062.758.057.706.042h.51c.197.004.392-.015.583-.057a.81.81 0 0 0 .337-.16.515.515 0 0 0 .159-.242c.027-.097.04-.198.041-.3a.574.574 0 0 0-.158-.396 2.653 2.653 0 0 0-.511-.412l-2.147-1.323a3.077 3.077 0 0 1-.95-.921 2.225 2.225 0 0 1-.422-1.247c0-1.576.993-2.364 2.98-2.364h.853c.24-.002.48.023.716.072l.629.103.597.118a.347.347 0 0 1 .282.366v.928c0 .202-.084.302-.253.299h-.084l-.445-.036a8.015 8.015 0 0 0-.66-.062l-.75-.05h-.715a1.716 1.716 0 0 0-.823.15.539.539 0 0 0-.26.514.428.428 0 0 0 .163.33c.146.118.301.223.465.314l2.045 1.262c.283.167.545.367.783.594.181.16.341.344.475.546.114.192.192.404.23.624.025.197.035.396.03.595v.005zM55.996 7.789a.222.222 0 0 1 0 .092l-2.633 9.23a7.63 7.63 0 0 1-.409 1.113 2.33 2.33 0 0 1-.572.773c-.257.215-.56.369-.884.448a5.272 5.272 0 0 1-1.334.144h-.422c-.156 0-.312-.015-.465-.046l-.43-.062a2.134 2.134 0 0 1-.341-.078.98.98 0 0 1-.23-.085.189.189 0 0 1-.103-.18v-1.033a.257.257 0 0 1 .092-.207.331.331 0 0 1 .22-.077h.429l.51.03.48.031h.41c.274.016.547-.052.782-.195.237-.213.397-.5.455-.814l.128-.474h-.235a1.748 1.748 0 0 1-.363-.041 1.019 1.019 0 0 1-.369-.165 1.33 1.33 0 0 1-.347-.387 2.707 2.707 0 0 1-.292-.72L48.03 7.843a.348.348 0 0 1 0-.108c0-.17.098-.255.296-.255h1.585a.244.244 0 0 1 .189.085c.05.056.086.123.107.195l1.584 6.433c.017.097.048.19.092.278a.144.144 0 0 0 .128.072h.144l1.691-6.795a.434.434 0 0 1 .107-.19.276.276 0 0 1 .205-.077h1.56a.274.274 0 0 1 .204.077.256.256 0 0 1 .075.23zM66.133 16.337a.301.301 0 0 1-.22.093H64.38a.32.32 0 0 1-.312-.314v-4.837H59.61v4.837a.325.325 0 0 1-.312.314h-1.536a.32.32 0 0 1-.312-.314V4.986a.28.28 0 0 1 .092-.212.316.316 0 0 1 .22-.085h1.533a.316.316 0 0 1 .289.181.28.28 0 0 1 .023.116v4.362h4.457V4.986a.28.28 0 0 1 .092-.212.316.316 0 0 1 .22-.085h1.534a.316.316 0 0 1 .288.181.28.28 0 0 1 .023.116v11.126a.307.307 0 0 1-.091.227l.002-.002zM74.82 16.116a.326.326 0 0 1-.311.315h-1.334a.321.321 0 0 1-.312-.315v-.254a5.412 5.412 0 0 1-1.096.514c-.36.12-.736.18-1.114.18-.327 0-.653-.035-.971-.108a2.129 2.129 0 0 1-1.498-1.215 3.038 3.038 0 0 1-.245-1.313v-.067c-.01-.405.062-.808.21-1.185.144-.34.377-.636.674-.855a3.204 3.204 0 0 1 1.19-.515 7.65 7.65 0 0 1 1.749-.175h.986v-.706a1.253 1.253 0 0 0-.337-1.03 1.733 1.733 0 0 0-1.022-.255c-.501 0-.987.014-1.457.042-.47.028-.836.056-1.096.085h-.076a.392.392 0 0 1-.205-.047c-.052-.03-.077-.103-.077-.222V7.984a.32.32 0 0 1 .297-.33c.313-.061.693-.118 1.14-.17a12.8 12.8 0 0 1 1.482-.077 3.894 3.894 0 0 1 2.556.742 2.792 2.792 0 0 1 .884 2.276l-.016 5.691zm-2.07-3.605h-.99a3.627 3.627 0 0 0-.875.085c-.186.047-.36.134-.51.255a.824.824 0 0 0-.271.417 2.174 2.174 0 0 0-.077.587v.051a.928.928 0 0 0 .266.784c.263.152.566.22.869.195.285-.001.57-.045.843-.13.265-.077.523-.182.767-.314l-.021-1.93zM83.852 16.337a.302.302 0 0 1-.22.093h-1.441a.298.298 0 0 1-.22-.093.298.298 0 0 1-.092-.221v-.36c-.36.247-.75.447-1.16.594a4.029 4.029 0 0 1-1.304.185 3.552 3.552 0 0 1-1.089-.16 2.043 2.043 0 0 1-.839-.514 2.4 2.4 0 0 1-.613-1.164 7.421 7.421 0 0 1-.174-1.715V7.834c0-.087.032-.17.092-.232a.291.291 0 0 1 .22-.103h1.441a.29.29 0 0 1 .22.103c.06.062.093.145.092.232v5.15c-.006.32.018.642.072.958.036.213.138.41.291.562.117.096.25.17.394.216.19.054.386.078.583.072.157 0 .313-.021.465-.062a3.91 3.91 0 0 0 .48-.16c.153-.06.301-.128.445-.206l.384-.206v-6.31a.33.33 0 0 1 .092-.231.292.292 0 0 1 .22-.103h1.441a.29.29 0 0 1 .22.103.33.33 0 0 1 .092.232v8.267a.304.304 0 0 1-.092.221zM87.916 16.327a.266.266 0 0 1-.21.103h-1.457a.29.29 0 0 1-.22-.103.331.331 0 0 1-.091-.227V4.718a.326.326 0 0 1 .311-.314h1.457a.274.274 0 0 1 .21.093.32.32 0 0 1 .084.221V16.1c0 .084-.03.164-.084.227v.001zM12.625 2.714h-.675a.4.4 0 0 1-.128 0 10.413 10.413 0 0 0-3.578-.407h.68a10.413 10.413 0 0 1 3.578.407.4.4 0 0 0 .129 0M3.24 8.653h-.675l14.517-7.01h.68L3.24 8.654z" fill="#fff"/><path d="M3.096 8.689h-.674a.327.327 0 0 0 .135-.036h.69a.327.327 0 0 1-.143.036M1.11 13.34H.428A.444.444 0 0 1 0 12.902h.69a.45.45 0 0 0 .422.433M.69 12.902H0v-.278h.68v.278" fill="#fff"/><path d="M.68 2.607H0V12.63h.68V2.607zM.68 2.606H0c0-.096.026-.19.077-.273h.682a.518.518 0 0 0-.077.273M.756 2.332h-.68a.43.43 0 0 1 .112-.117h.68a.43.43 0 0 0-.112.117zM.87 2.215H.19l.046-.03A18.723 18.723 0 0 1 8.01 0h.68A18.63 18.63 0 0 0 .915 2.19l-.046.025" fill="#fff"/><path d="M8.69 0c2.237-.01 4.452.447 6.507 1.34a.084.084 0 0 1 .04.072.085.085 0 0 1-.04.072l-2.418 1.194a.376.376 0 0 1-.163.036.4.4 0 0 1-.128 0c-1.16-.342-2.37-.48-3.576-.406h-.22c-1.97.086-3.907.555-5.701 1.38a.441.441 0 0 0-.253.412v4.187a.384.384 0 0 0 .214.365.376.376 0 0 0 .143.037c.05 0 .1-.013.144-.036l14.524-7.01a.056.056 0 0 1 .068.03.057.057 0 0 1-.022.072L1.326 13.269a.377.377 0 0 1-.22.072.444.444 0 0 1-.421-.432V2.606a.472.472 0 0 1 .235-.417A18.574 18.574 0 0 1 8.69 0zM2.939 16.997h-.68a.433.433 0 0 1-.327-.154 9.713 9.713 0 0 1-1.095-1.5.544.544 0 0 1 0-.56h.696a.544.544 0 0 0 0 .56 9.722 9.722 0 0 0 1.079 1.5.435.435 0 0 0 .327.154zM1.534 14.78h-.69a.456.456 0 0 1 .117-.124L19.02 1.7h.68L1.645 14.658a.457.457 0 0 0-.108.124" fill="#fff"/><path d="M19.7 1.7c.117 0 .168.092.102.154L3.242 16.878a.431.431 0 0 1-.629-.037 9.717 9.717 0 0 1-1.08-1.498.518.518 0 0 1 .129-.686L19.7 1.7zM15.376 11.672h-.68l1.758-1.989h.68l-1.758 1.989zM15.17 12.037h-.674a.383.383 0 0 1 .072-.19h.68a.383.383 0 0 0-.072.2M15.243 11.847h-.675a1.37 1.37 0 0 1 .129-.165h.68a1.38 1.38 0 0 0-.128.165M14.353 15.261h-.68c.138-.14.263-.294.373-.459h.68c-.11.165-.235.318-.373.459z" fill="#fff"/><path d="M14.725 14.802h-.674c.363-.556.409-1.184.445-2.77h.68c-.035 1.581-.084 2.208-.445 2.77M9.111 19.479H8.43a.326.326 0 0 0 .178-.057c.302-.2.654-.437 1.023-.706h.68c-.373.268-.726.515-1.022.706a.326.326 0 0 1-.18.057" fill="#fff"/><path d="M10.315 18.717h-.68c.51-.366 1.068-.788 1.62-1.252a16.658 16.658 0 0 0 2.407-2.184h.68a18.602 18.602 0 0 1-2.407 2.184c-.552.464-1.11.886-1.62 1.252zM4.233 17.757h-.68L21.146 1.824h.675L4.233 17.757z" fill="#fff"/><path d="M21.825 1.824c.092 0 .133.057.084.102L8.18 18.341a.433.433 0 0 0 .084.628l.695.459c.05.033.109.051.169.052a.325.325 0 0 0 .178-.057c.92-.6 1.803-1.252 2.648-1.954 2.32-1.946 2.412-2.188 2.417-2.208.71-.746.778-1.215.818-3.227 0-.098.041-.186.199-.366l1.758-1.984c.077 0 .112 0 .112.057 0 1.659-.102 2.256-.102 3.606 0 3.605-5.76 7.416-7.508 8.503a.967.967 0 0 1-.511.15.951.951 0 0 1-.51-.14 29.932 29.932 0 0 1-4.391-3.193.624.624 0 0 1 0-.911l17.59-15.932z" fill="#fff"/><path d="M9.119 21.997h-.674a.951.951 0 0 1-.511-.14 29.93 29.93 0 0 1-4.355-3.193.63.63 0 0 1-.102-.804h.664a.632.632 0 0 0 .102.804 29.926 29.926 0 0 0 4.39 3.193c.154.094.331.142.511.14" fill="#fff"/><path d="M4.142 17.863h-.68a.558.558 0 0 1 .117-.112h.654a.554.554 0 0 0-.092.107" fill="#fff"/></svg>