<svg width="24" height="24" fill="none" xmlns="http://www.w3.org/2000/svg"><path d="M13.908 7.48h-.369a.22.22 0 0 1-.07 0 5.715 5.715 0 0 0-1.958-.222h.372c.66-.04 1.323.035 1.958.222a.22.22 0 0 0 .07 0" fill="#00405D"/><path d="M8.773 10.72h-.37l7.944-3.823h.372L8.773 10.72z" fill="#004463"/><path d="M8.694 10.74h-.369a.18.18 0 0 0 .074-.02h.378a.178.178 0 0 1-.078.02" fill="#004462"/><path d="M7.607 13.276h-.372A.243.243 0 0 1 7 13.038h.378a.245.245 0 0 0 .23.236M7.378 13.037H7v-.151h.372v.151" fill="#00405D"/><path d="M7.372 7.422H7v5.467h.372V7.422z" fill="#003F5D"/><path d="M7.372 7.421H7c0-.052.014-.104.042-.148h.373a.282.282 0 0 0-.042.148" fill="#00405D"/><path d="M7.414 7.273h-.372a.235.235 0 0 1 .062-.065h.372a.235.235 0 0 0-.062.065z" fill="#004260"/><path d="M7.476 7.208h-.372l.025-.016A10.27 10.27 0 0 1 11.383 6h.372c-1.488.083-2.94.49-4.254 1.194l-.026.014" fill="#004462"/><path d="M11.755 6a8.86 8.86 0 0 1 3.56.73c.007.005.013.01.016.018a.047.047 0 0 1-.016.061l-1.322.652a.206.206 0 0 1-.09.02.22.22 0 0 1-.07 0 5.715 5.715 0 0 0-1.957-.222h-.12a8.36 8.36 0 0 0-3.12.753.241.241 0 0 0-.138.224v2.284a.209.209 0 0 0 .196.22.178.178 0 0 0 .078-.02l7.947-3.824a.03.03 0 0 1 .039.039.031.031 0 0 1-.013.017l-9.02 6.285a.206.206 0 0 1-.12.04.243.243 0 0 1-.23-.236V7.42a.257.257 0 0 1 .128-.227A10.188 10.188 0 0 1 11.755 6z" fill="#0C648C"/><path d="M8.608 15.271h-.372a.236.236 0 0 1-.178-.084 5.302 5.302 0 0 1-.6-.818.296.296 0 0 1 0-.306h.38a.296.296 0 0 0 0 .306c.171.291.369.565.591.818a.237.237 0 0 0 .18.084z" fill="#90330C"/><path d="M7.84 14.062h-.378a.25.25 0 0 1 .064-.068l9.882-7.067h.372L7.9 13.995a.248.248 0 0 0-.059.068" fill="#94340E"/><path d="M17.78 6.927c.063 0 .091.05.055.084l-9.062 8.195a.236.236 0 0 1-.344-.02 5.304 5.304 0 0 1-.59-.817.282.282 0 0 1 .07-.374l9.87-7.068z" fill="#E25526"/><path d="M15.414 12.367h-.373l.963-1.085h.372l-.962 1.085z" fill="#004362"/><path d="M15.301 12.567h-.369a.211.211 0 0 1 .04-.104h.372a.212.212 0 0 0-.04.11" fill="#00405D"/><path d="M15.34 12.463h-.368a.768.768 0 0 1 .07-.091h.372a.768.768 0 0 0-.07.09M14.854 14.324h-.372a1.74 1.74 0 0 0 .204-.25h.372a1.74 1.74 0 0 1-.204.25z" fill="#004260"/><path d="M15.059 14.074h-.37c.2-.303.224-.646.244-1.511h.372c-.019.862-.046 1.204-.243 1.511" fill="#00405D"/><path d="M11.986 16.625h-.374a.178.178 0 0 0 .098-.031c.165-.11.358-.239.56-.385h.372c-.205.146-.397.28-.56.385a.178.178 0 0 1-.098.03" fill="#004462"/><path d="M12.645 16.21h-.372c.279-.2.584-.43.886-.684a9.107 9.107 0 0 0 1.317-1.19h.372c-.403.434-.844.833-1.317 1.19-.302.253-.607.484-.886.683z" fill="#004260"/><path d="M9.317 15.686h-.373l9.627-8.691h.37l-9.624 8.69z" fill="#004462"/><path d="M18.943 6.995c.05 0 .072.03.046.056l-7.514 8.953a.237.237 0 0 0 .047.343l.38.25c.028.018.06.028.092.028a.178.178 0 0 0 .098-.03 15.69 15.69 0 0 0 1.449-1.066c1.27-1.062 1.32-1.194 1.323-1.205.388-.407.425-.663.447-1.76 0-.053.023-.101.109-.2l.962-1.082c.042 0 .061 0 .061.031 0 .905-.056 1.23-.056 1.967 0 1.967-3.152 4.045-4.108 4.638a.529.529 0 0 1-.56.006 16.377 16.377 0 0 1-2.402-1.742.34.34 0 0 1 0-.497l9.626-8.69z" fill="#0C648C"/><path d="M11.99 17.998h-.369a.522.522 0 0 1-.28-.075 16.37 16.37 0 0 1-2.383-1.742.343.343 0 0 1-.055-.439h.363a.344.344 0 0 0 .056.439c.747.652 1.55 1.235 2.402 1.742a.522.522 0 0 0 .28.076" fill="#00405D"/><path d="M9.267 15.744h-.372a.308.308 0 0 1 .064-.061h.358a.308.308 0 0 0-.05.058" fill="#004260"/><path d="M12 .5C18.351.5 23.5 5.649 23.5 12S18.351 23.5 12 23.5.5 18.351.5 12 5.649.5 12 .5z" stroke="url(#paint0_angular)"/><defs><radialGradient id="paint0_angular" cx="0" cy="0" r="1" gradientUnits="userSpaceOnUse" gradientTransform="matrix(12 0 0 12 12 12)"><stop stop-color="#E2F0FF"/><stop offset="1" stop-color="#4C94D0"/></radialGradient></defs></svg>